/* XPM */
static char * monster_1_xpm[] = {
"32 32 12 1",
" 	c #40264D",
".	c #644574",
"+	c #563767",
"@	c #EECDA0",
"#	c #CAA46E",
"$	c #88767B",
"%	c #000000",
"&	c #C71F00",
"*	c #ECFFFF",
"=	c #690C91",
"-	c #9641C8",
";	c #5F4B55",
"                                ",
"   ..........................   ",
"  .++++++++++++++++++++++++++.  ",
" .++++++++++++++++++++++++++++. ",
" .+++++++++@+++++++#++++++++++. ",
" .+++++++++#@+++++##++++++++++. ",
" .+++++++++##@+++###++++++++++. ",
" .+++++++++#$@@#####++++++++++. ",
" .++++++++#$$@@@@@@##+++++++++. ",
" .++++++++##$#%%@#@@@%++++++++. ",
" .++++++++###%%%@@#@#%++++++++. ",
" .++++++++###%%&@@@#@&++++++++. ",
" .++++++++###%%%@*@%*%+=++++++. ",
" .+++++-+#######%*%%*#==+=++++. ",
" .+++-+--######%######=$$==+++. ",
" .++--@@-#########@@@#=$$$=+++. ",
" .++-@@@@#######@@@@@@$$$$=+++. ",
" .++-#@@$####@@@@@@@@@@;;;$+++. ",
" .++#$$$$###@@@@@@@#@@@;;;;$++. ",
" .+#$$$$$###@@@@@@@##@@;;;;;$+. ",
" .#$$$$$$######@@@@@#@#;;;;;$+. ",
" .#$$$$$$;######@@@@#;++;;;;;$. ",
" #$$$$+++#;;#######;;$+++++;;$. ",
" #$++++++@@@;;;;;;;;$$+++++++$. ",
" #+++++++@@@@+++++$$$$++++++++. ",
" .+++++++#@#@+++++$;$;++++++++. ",
" .++++++++@+++++++++$+++++++++. ",
" .++++++++++++++++++++++++++++. ",
" ..+++++++++++++++++++++++++++. ",
"  ..+++++++++++++++++++++++++.  ",
"   ..........................   ",
"                                "};
