/* XPM */
static char * player_1_xpm[] = {
"32 32 26 1",
" 	c #40264D",
".	c #1A1C26",
"+	c #644574",
"@	c #F9F3C0",
"#	c #563767",
"$	c #F6DD7A",
"%	c #CEA65F",
"&	c #402830",
"*	c #AB684C",
"=	c #3C4851",
"-	c #CBD2D9",
";	c #99A5A7",
">	c #617077",
",	c #EDD1D6",
"'	c #F1C256",
")	c #71B5DB",
"!	c #F3BFAD",
"~	c #DE9E8C",
"{	c #F2CDAA",
"]	c #FFFFFF",
"^	c #D07482",
"/	c #DFB2C6",
"(	c #5E423C",
"_	c #806352",
":	c #4C0717",
"<	c #810B0B",
"           ..    ..             ",
"   +++++++.@@.++.@@.+++++++++   ",
"  +######.$@.####.@$.########+  ",
" +#######.%$&....&$%.#########+ ",
" +#######.*%$=--=$%*.#########+ ",
" +########.*=-;>>=*.##########+ ",
" +########.=;>>@@>=.##########+ ",
" +######..=;>$$,,$'=..#####..#+ ",
" +####..--=;',)),)!=--.....--.+ ",
" +###.$-;;='~,,~,~{=;;$=;=;=;-. ",
" +##.-$;;;=]^~~{,{^=;;$=.>.>.;. ",
" +###.;$>>=]]^]]]]]=>>$=..=.;.+ ",
" +##.;.>$=]-]]]/~/]]=$=.#....#+ ",
" +##.;>.=]-;]--]]]--]=.##.(.##+ ",
" +.......];;]-;-]-;-]=.##._.##+ ",
" .@@@@@@@.>>;-;;-;;-;..##._.##+ ",
".$>--@-->$.=>;-;;;->.:.##._.##+ ",
".$>>>@>>>$..=>;;;;;=.<.##._.##+ ",
".$>;;$;;>$...==>;>=..<.##._.##+ ",
".$>;;$;;>$.*...===.*.<.##._.##+ ",
".'=;;$;;='..%'$@$'%..<.##._.##+ ",
".'===$==='.*.......*.<.##._.##+ ",
".'=>>'>>='.>%=''='%>.<.##._.##+ ",
".'=>>'>>='..>.;;.>...<.##._.##+ ",
".'.=='==.'.>..>>..>>.<.##._.... ",
" .%.=%=.%..>=.==.=>..<......$$@.",
" +.*.*.*..>..:.....;.<.''.$.''@.",
" +#.***..=.>.:<:..>..:.%%.'.%%@.",
" ++#....=;>..:<:.=.>;.:...%.**@.",
"  ++##.=;>>=.:<:..=>>;.:.#..... ",
"   ++++++++++++++++++++++++++   ",
"                                "};
