/* XPM */
static char * wall_xpm[] = {
"32 32 11 1",
" 	c #40264D",
".	c #644574",
"+	c #563767",
"@	c #542E0F",
"#	c #A75B1D",
"$	c #6B3A13",
"%	c #D97727",
"&	c #93511A",
"*	c #B66320",
"=	c #894B18",
"-	c #B96520",
"                                ",
"   ..........................   ",
"  .++++++++++++++++++++++++++.  ",
" .++++++++++++++++++++++++++++. ",
" .++++++++++++++++++++++++++++. ",
" .+++++@@@@@@@@@@@@@@@@@++++++. ",
" .++++@##$$$$$$$$$$$$$##@+++++. ",
" .++++@#################@+++++. ",
" .++++@@@@@@@@@@@@@@@@@@@+++++. ",
" .++++@%%%%%%%%%%%%%%%%%@+++++. ",
" .++++@&&#############&&@+++++. ",
" .++++@&*#$$$$$$$$$$$#*&@+++++. ",
" .++++@&#$$#$=====$-$$#&@+++++. ",
" .++++@&#$###$===$---$#&@+++++. ",
" .++++@&#$$###$=$---$$#&@+++++. ",
" .++++@&#$=$###$---$=$#&@+++++. ",
" .++++@&#$==$#$---$==$#&@+++++. ",
" .++++@&#$&==$---$===$#&@+++++. ",
" .++++@&#$==$---$#$==$#&@+++++. ",
" .++++@&#$=$---$###$=$#&@+++++. ",
" .++++@&#$$---$=$###$$#&@+++++. ",
" .++++@&#$---$===$###$#&@+++++. ",
" .++++@&#$$-$=====$#$$#&@+++++. ",
" .++++@&##$$$$$$$$$$$##&@+++++. ",
" .++++@&*#############*&@+++++. ",
" .++++@&&&&&&&&&&&&&&&&&@+++++. ",
" .++++@@@@@@@@@@@@@@@@@@@+++++. ",
" .++++++++++++++++++++++++++++. ",
" ..+++++++++++++++++++++++++++. ",
"  ..+++++++++++++++++++++++++.  ",
"   ..........................   ",
"                                "};
